<?xml version="1.0" standalone="no"?>
<!DOCTYPE svg PUBLIC "-//W3C//DTD SVG 20010904//EN"
 "http://www.w3.org/TR/2001/REC-SVG-20010904/DTD/svg10.dtd">
<svg version="1.0" xmlns="http://www.w3.org/2000/svg"
 width="251.000000pt" height="251.000000pt" viewBox="0 0 251.000000 251.000000"
 preserveAspectRatio="xMidYMid meet">
<metadata>
Created by potrace 1.14, written by Peter Selinger 2001-2017
</metadata>
<g transform="translate(0.000000,251.000000) scale(0.100000,-0.100000)"
fill="#000000" stroke="none">
<path d="M5 1308 c-1 -475 3 -865 7 -868 3 -3 55 -5 115 -5 l108 0 5 575 5
575 40 -44 c22 -24 49 -54 60 -65 11 -12 63 -69 115 -126 52 -57 104 -114 115
-126 34 -36 182 -198 205 -224 l21 -24 31 35 c17 19 69 76 117 128 47 52 93
102 101 111 8 9 49 54 90 100 41 46 82 91 91 102 9 10 50 55 91 101 41 45 94
103 118 129 l43 48 511 2 511 3 0 115 0 115 -553 0 -554 0 -71 -76 c-40 -41
-106 -113 -147 -159 -41 -46 -82 -91 -90 -100 -8 -9 -75 -82 -148 -163 -74
-81 -137 -147 -141 -147 -4 0 -43 39 -87 87 -43 47 -90 98 -104 113 -14 15
-68 74 -120 130 -52 57 -104 113 -116 124 -11 12 -72 77 -135 146 -63 68 -141
153 -174 188 l-60 63 0 -863z"/>
<path d="M1682 1268 c-171 -19 -323 -156 -360 -326 -6 -23 -10 -168 -11 -322
l0 -280 27 -1 c35 0 1098 0 1135 0 l27 1 0 115 0 115 -27 1 c-16 0 -229 1
-475 1 l-448 1 -1 101 c-2 231 9 282 67 323 55 38 80 40 486 39 259 -1 398 3
399 9 1 6 2 58 3 118 1 89 -1 107 -14 108 -91 5 -761 2 -808 -3z"/>
</g>
</svg>
