<?xml version="1.0" encoding="utf-8"?>
<!-- Generator: Adobe Illustrator 26.0.2, SVG Export Plug-In . SVG Version: 6.00 Build 0)  -->
<svg version="1.0" id="Layer_1" xmlns="http://www.w3.org/2000/svg" xmlns:xlink="http://www.w3.org/1999/xlink" x="0px" y="0px"
	 viewBox="0 0 195 37" style="enable-background:new 0 0 195 37;" xml:space="preserve">
<g>
	<path d="M60.8,29.1V3.4L74,16.7L86.9,3.4V29h-3.7V12.3l-9.4,9.3l-9.4-9.4V29h-3.6V29.1z"/>
	<path d="M102.3,14h3.5v15h-3.5v-1.6c-1.5,1.8-3.4,2-4.5,2c-4.6,0-7.3-3.9-7.3-8c0-4.9,3.4-7.9,7.3-7.9c1.1,0,3,0.3,4.5,2.1V14z
		 M94.1,21.6c0,2.6,1.6,4.8,4.2,4.8c2.2,0,4.3-1.6,4.3-4.8c0-3.3-2-4.9-4.3-4.9C95.7,16.8,94.1,18.9,94.1,21.6z"/>
	<path d="M121.9,18.6c-1.6-1.6-3.2-1.9-4.3-1.9c-1.6,0-2.7,0.7-3.3,1.3c-0.6,0.6-1.3,1.8-1.3,3.5c0,1.8,0.7,2.9,1.4,3.6
		c0.8,0.8,1.9,1.2,3.2,1.2c1.4,0,3.1-0.6,4.3-1.9v3.9c-0.9,0.5-2.3,1.2-4.6,1.2c-2.5,0-4.3-0.7-5.7-2.2c-1.1-1.1-2.1-2.9-2.1-5.6
		c0-2.8,1.2-4.7,2.3-5.8c1.2-1.2,3.1-2.2,6-2.2c1.1,0,2.5,0.2,4.1,1.1V18.6z"/>
	<path d="M147.3,10.3h-9.5v7.1h9.2V21h-9.2v7.2h9.5v3.6h-13.2V6.7h13.2V10.3z"/>
	<path d="M151.4,14h3.5v1.4c1.5-1.7,3.2-1.8,4.1-1.8c2.8,0,4,1.4,4.4,2c0.6,0.8,0.9,1.9,0.9,4.2V29h-3.5v-8.4c0-3.8-1.4-3.9-2.8-3.9
		c-1.6,0-3.2,0.2-3.2,5.1V29h-3.5V14H151.4z"/>
	<path d="M175.3,18c-0.4-0.6-1-1.3-2.1-1.3c-0.5,0-0.9,0.2-1.1,0.4c-0.2,0.2-0.3,0.5-0.3,0.8c0,0.4,0.2,0.6,0.5,0.9
		c0.2,0.1,0.4,0.2,1.2,0.6l1.8,0.9c0.8,0.4,1.5,0.8,2.1,1.4c0.8,0.8,1.1,1.8,1.1,2.8c0,1.4-0.5,2.5-1.3,3.4
		c-1.2,1.3-2.6,1.7-4.2,1.7c-1,0-2.2-0.1-3.3-1c-0.9-0.6-1.6-1.7-1.9-2.8l2.9-1.4c0.2,0.5,0.5,1.1,0.8,1.4c0.2,0.2,0.7,0.6,1.5,0.6
		c0.5,0,1.1-0.2,1.4-0.5c0.3-0.3,0.5-0.8,0.5-1.2s-0.1-0.8-0.5-1.1c-0.4-0.4-0.9-0.7-1.5-0.9l-1.3-0.6c-0.7-0.3-1.5-0.7-2.1-1.3
		c-0.8-0.8-1.1-1.6-1.1-2.5c0-1.2,0.5-2.4,1.3-3.2c0.7-0.7,1.8-1.4,3.7-1.4c1.1,0,1.9,0.2,2.8,0.8c0.5,0.3,1.2,0.9,1.7,1.9L175.3,18
		z"/>
</g>
<g>
	<polygon points="24.2,6.6 23.6,6.6 22.3,8 14.4,16.7 5.7,7.3 2.1,3.4 2.1,8.4 2.1,30.2 5.7,30.2 5.7,12.3 14.4,21.8 14.4,21.8 
		14.4,21.8 24.9,10.2 40.7,10.2 40.7,6.6 	"/>
	<path d="M40.7,20.9v-3.6H28.8c-3.6,0-6.5,2.9-6.5,6.5v7.9h18.3v-3.6H25.9v-4.4c0-1.6,1.3-2.8,2.8-2.8H40.7z"/>
</g>
</svg>
